<svg xmlns="http://www.w3.org/2000/svg" viewBox="0 0 371.18 371.18"><defs><style>.cls-1{fill:#051821;}.cls-2{fill:#10abc5;}</style></defs><title>icono</title><g id="Capa_2" data-name="Capa 2"><rect class="cls-1" width="371.18" height="371.18" rx="39.18"/></g><g id="Capa_1" data-name="Capa 1"><path class="cls-2" d="M95.08,131.75H234a2.68,2.68,0,0,1,2.55,1.35,2.41,2.41,0,0,1-.45,2.85l-22.2,29.1a12.21,12.21,0,0,1-9.9,4.8h-74.1v48h75q3.6,0,3.6,3.6v30.6q0,3.9-3.6,3.9h-75v82.2q0,3.6-3.9,3.6H95.08a3.59,3.59,0,0,1-3.6-3.6V135.35a3.59,3.59,0,0,1,3.6-3.6Z" transform="translate(-54.41 -54.41)"/><path class="cls-2" d="M399,165.65a3.59,3.59,0,0,1-3.6,3.6h-55.2v168.3q0,3.6-3.6,3.6h-30.9q-3.6,0-3.6-3.6V169.25h-66.9a2.68,2.68,0,0,1-2.55-1.35,2.42,2.42,0,0,1,.45-2.85l22.2-29.1a12.24,12.24,0,0,1,9.9-4.8h130.2a3.59,3.59,0,0,1,3.6,3.6Z" transform="translate(-54.41 -54.41)"/></g></svg>